HIERARCHY
ROOT Hips
{
  OFFSET 3.13124 94.3669 -3.18751
  CHANNELS  6 Xposition Yposition Zposition Zrotation Xrotation Yrotation
  JOINT LeftUpLeg
  {
    OFFSET 8.64259 1.95398 -2.38835
    CHANNELS 3 Zrotation Xrotation Yrotation
    JOINT LeftLeg
    {
      OFFSET 43.7702 0 0
      CHANNELS 3 Zrotation Xrotation Yrotation
      JOINT LeftFoot
      {
        OFFSET 40.6238 0 0
        CHANNELS 3 Zrotation Xrotation Yrotation
        JOINT LeftToeBase
        {
          OFFSET 12.7242 0 0
          CHANNELS 3 Zrotation Xrotation Yrotation
          End Site
          {
            OFFSET 0 0 0
          }
        }
      }
    }
  }
  JOINT RightUpLeg
  {
    OFFSET -8.2249 1.95398 -2.59336
    CHANNELS 3 Zrotation Xrotation Yrotation
    JOINT RightLeg
    {
      OFFSET 43.5653 0 0
      CHANNELS 3 Zrotation Xrotation Yrotation
      JOINT RightFoot
      {
        OFFSET 40.6238 0 0
        CHANNELS 3 Zrotation Xrotation Yrotation
        JOINT RightToeBase
        {
          OFFSET 12.7242 0 0
          CHANNELS 3 Zrotation Xrotation Yrotation
          End Site
          {
            OFFSET 0 0 0
          }
        }
      }
    }
  }
  JOINT Spine
  {
    OFFSET 0.165834 0.87714 6.61349
    CHANNELS 3 Zrotation Xrotation Yrotation
    JOINT Spine1
    {
      OFFSET 7.38962 1.71661e-005 0
      CHANNELS 3 Zrotation Xrotation Yrotation
      JOINT Spine2
      {
        OFFSET 11.9445 1.14441e-005 0
        CHANNELS 3 Zrotation Xrotation Yrotation
        JOINT Spine3
        {
          OFFSET 14.7254 4.19617e-005 0
          CHANNELS 3 Zrotation Xrotation Yrotation
          JOINT Spine4
          {
            OFFSET 10.9679 0 0
            CHANNELS 3 Zrotation Xrotation Yrotation
            JOINT RightShoulder
            {
              OFFSET 2.46616 -1.6653 3.69651
              CHANNELS 3 Zrotation Xrotation Yrotation
              JOINT RightArm
              {
                OFFSET 13.0012 0 0
                CHANNELS 3 Zrotation Xrotation Yrotation
                JOINT RightForeArm
                {
                  OFFSET 28.7848 1.52588e-005 0
                  CHANNELS 3 Zrotation Xrotation Yrotation
                  JOINT RightHand
                  {
                    OFFSET 26.5688 1.52588e-005 0
                    CHANNELS 3 Zrotation Xrotation Yrotation
                    End Site
                    {
                      OFFSET 0 0 0
                    }
                  }
                }
              }
            }
            JOINT LeftShoulder
            {
              OFFSET 2.38034 -1.29275 -3.75231
              CHANNELS 3 Zrotation Xrotation Yrotation
              JOINT LeftArm
              {
                OFFSET 16.3182 6.10352e-005 0
                CHANNELS 3 Zrotation Xrotation Yrotation
                JOINT LeftForeArm
                {
                  OFFSET 27.0901 0 0
                  CHANNELS 3 Zrotation Xrotation Yrotation
                  JOINT LeftHand
                  {
                    OFFSET 24.5451 1.52588e-005 0
                    CHANNELS 3 Zrotation Xrotation Yrotation
                    End Site
                    {
                      OFFSET 0 0 0
                    }
                  }
                }
              }
            }
            JOINT Neck
            {
              OFFSET 5.0226 -0.0266342 0
              CHANNELS 3 Zrotation Xrotation Yrotation
              JOINT Head
              {
                OFFSET 6.69363 2.86102e-005 0
                CHANNELS 3 Zrotation Xrotation Yrotation
                End Site
                {
                  OFFSET 0 0 0
                }
              }
            }
          }
        }
      }
    }
  }
}
MOTION
Frames:	12
Frame Time:	0.0333333
-2.60827 84.2677 -92.4259 84.581 -21.078 78.2619 -167.087 15.8947 97.801 -49.7978 -18.3662 6.95829 39.2906 -5.1335 -5.70953 28.7808 6.1472e-006 7.56055e-007 -175.235 49.3335 67.7878 -32.2268 38.8253 2.45716 50.1931 5.86922 4.79266 28.7808 1.53536e-005 3.18881e-005 -0.247106 9.96072 -85.8009 6.95146 1.20656 1.74324 -4.72003 1.28209 1.68845 -27.2473 0.626985 2.02516 -7.23467 0.626984 2.02515 104.152 -34.4924 -78.2335 -1.46283 49.2483 -10.4435 -6.48102 2.78795 -40.9747 -5.37983 -0.320008 -0.0162412 -90.8356 -32.3022 72.544 6.52489 42.1047 -8.1411 6.19724 -1.76029 -68.5373 -35.738 12.0667 -43.5064 12.4215 -17.9194 -18.5372 -1.33432 -12.9906 2.49598 
0.340719 86.1172 -88.2474 84.3844 -28.37 77.7018 -167.535 12.4528 95.803 -48.2802 -7.64247 12.3854 29.2769 -10.5424 -12.7063 28.7808 6.1472e-006 7.56055e-007 -176.612 47.8344 73.6593 -33.8622 38.3755 2.44816 53.8914 4.07853 3.15953 28.7808 1.53536e-005 3.18881e-005 -0.643095 9.62615 -85.9705 7.57434 0.158216 2.19221 -4.09844 0.254502 2.18313 -26.6193 -0.507816 2.13846 -6.60662 -0.507796 2.13847 104.435 -31.8559 -77.5257 -0.93495 45.4869 -8.81242 -5.85351 1.53041 -34.6859 -5.37983 -0.320008 -0.0162412 -91.396 -34.5563 72.2941 14.6529 38.4896 -10.2181 1.80449 -4.11259 -70.8492 -39.3114 12.6215 -41.1839 10.5077 -11.194 -14.257 -3.05733 -7.69394 1.97499 
2.45275 88.0959 -83.6659 84.3187 -34.2977 78.9988 -165.988 13.3062 97.1871 -51.2453 4.01317 13.7788 32.5677 -11.5562 -13.0783 28.7808 6.1472e-006 7.56055e-007 -178.473 44.1259 80.5471 -32.2907 38.4104 2.43375 54.8628 2.50062 2.01324 28.7808 1.53536e-005 3.18881e-005 -1.10074 9.32795 -86.0668 8.1334 -0.855181 2.13746 -3.53907 -0.760277 2.173 -26.066 -1.45793 1.7818 -6.05335 -1.45794 1.7818 104.901 -29.835 -76.4321 -0.697718 42.2854 -6.03577 -5.14469 0.903701 -26.8329 -5.37983 -0.320008 -0.0162412 -91.4087 -33.7618 71.9974 19.3173 36.7154 -12.5953 0.651716 -3.45055 -69.0789 -40.8896 15.7551 -47.7997 8.48935 -5.68609 -12.6299 -3.86087 -2.90827 1.23233 
4.18084 89.9812 -79.3448 84.1454 -39.4657 79.7025 -166.523 15.8836 98.3229 -48.7681 -7.01443 9.60687 37.3675 -4.77382 -5.56717 28.7808 6.1472e-006 7.56055e-007 -179.381 39.8985 85.8349 -28.9107 36.647 2.24323 54.752 1.05657 1.03282 28.7808 1.53536e-005 3.18881e-005 -1.504 8.96231 -85.9366 8.83017 -1.65859 2.35506 -2.84197 -1.55338 2.42573 -25.3751 -2.2896 1.74787 -5.36244 -2.28961 1.74786 105.575 -30.1674 -75.0832 -1.66334 40.3375 -0.571674 -4.80207 0.688659 -24.9924 -5.37983 -0.320008 -0.0162412 -90.9551 -29.5108 71.3081 22.9435 36.0788 -15.3202 -4.73809 -3.04601 -67.5863 -37.2642 12.4979 -43.0796 3.93374 -1.5947 -18.6297 -3.18135 1.5928 7.93841 
5.3901 91.6256 -75.4072 84.4799 -43.8436 79.8917 -167.457 18.4682 98.8518 -44.0733 -16.8134 6.84942 39.6944 -7.25104 -7.41503 28.7808 6.1472e-006 7.56055e-007 -179.487 35.7311 89.2862 -25.6225 34.0452 1.94137 53.5371 -1.46705 -0.669148 28.7808 1.53536e-005 3.18881e-005 -2.09325 8.62085 -85.7324 9.47351 -2.45511 2.73583 -2.19821 -2.33238 2.84118 -24.7396 -3.16367 1.87152 -4.72692 -3.16368 1.8715 107.811 -30.895 -70.6471 -1.29106 40.462 1.49615 -5.82276 0.976619 -24.7956 -5.37983 -0.320008 -0.0162412 -91.1898 -23.6604 68.4492 22.6111 35.7544 -14.4831 -7.22427 -2.46397 -66.9979 -35.0702 11.5798 -42.786 -1.15633 2.59059 -23.0207 -2.99852 5.44433 14.2451 
6.78741 92.9836 -72.1877 84.8877 -49.335 81.0781 -169.2 20.1836 98.9485 -37.3373 -21.427 6.29843 38.0024 -10.3608 -10.4612 28.7808 6.1472e-006 7.56055e-007 -179.185 31.6633 92.7455 -22.9506 31.7421 1.78837 51.9843 -1.60585 -0.76643 28.7808 1.53536e-005 3.18881e-005 -2.42441 8.38653 -86.1233 9.95733 -3.00422 2.94273 -1.71376 -2.87188 3.07202 -24.2637 -3.74952 1.90353 -4.25101 -3.74953 1.90352 110.774 -30.8422 -64.6919 -1.38691 41.0501 2.46081 -6.89678 1.3502 -24.6107 -5.37983 -0.320008 -0.0162412 -91.7366 -20.1614 65.5864 22.0334 35.8302 -12.7464 -6.56683 -3.23922 -67.3193 -38.5937 11.3085 -38.301 -3.9031 6.48332 -22.6703 -4.52547 8.49303 16.7806 
8.50149 94.2789 -69.4439 83.4385 -57.858 80.5679 -171.094 21.4366 99.109 -31.1135 -27.6853 3.8914 39.4966 -5.75295 -6.00112 28.7808 6.1472e-006 7.56055e-007 -178.444 27.5884 95.7717 -19.2396 28.0468 1.69442 50.3611 0.205427 0.562986 28.7808 1.53536e-005 3.18881e-005 -2.43978 8.10365 -86.9238 10.5756 -3.28375 2.91409 -1.09475 -3.15236 3.05575 -23.6513 -4.00747 1.79192 -3.63868 -4.00748 1.79192 112.449 -27.751 -60.3557 -1.02635 42.408 2.22293 -8.31682 1.496 -22.2954 -5.37983 -0.320008 -0.0162412 -91.4625 -21.4589 66.8301 24.356 36.1331 -14.0851 -9.38507 -4.24369 -68.1563 -39.4583 11.2075 -37.2294 -5.8921 10.83 -16.4256 -4.9243 11.8567 15.7036 
10.3441 95.5281 -66.9424 77.5295 -69.5909 74.262 -172.054 21.358 98.1317 -24.1914 -28.8997 1.92918 37.4972 2.68975 1.51829 28.7808 6.1472e-006 7.56055e-007 -177.574 23.8151 97.6058 -15.2034 22.6013 1.39323 47.9275 1.94875 1.97091 28.7808 1.53536e-005 3.18881e-005 -2.25525 7.73498 -87.433 11.3667 -3.11322 3.22432 -0.304853 -2.96838 3.35811 -22.8535 -3.93804 2.13945 -2.84084 -3.93803 2.13944 113.17 -24.2996 -57.5319 -1.18647 37.7958 2.34064 -4.99878 1.05344 -23.67 -5.37983 -0.320008 -0.0162412 -90.1332 -22.7291 70.2339 25.7989 37.9229 -15.749 -13.9963 -6.75165 -70.1423 -42.5327 11.5881 -35.6194 -8.04283 15.2224 -9.30019 -3.50984 15.6737 13.944 
12.2293 96.6912 -64.5591 53.2755 -82.1539 48.9217 -172.151 21.3815 98.0596 -19.2502 -31.9923 1.04872 31.137 0.384114 -0.81474 28.7808 6.1472e-006 7.56055e-007 -176.682 20.0428 98.8968 -12.2545 18.5845 1.12205 44.0714 2.46289 2.61974 28.7808 1.53536e-005 3.18881e-005 -2.01041 7.42783 -87.5344 12.0071 -2.70414 3.71018 0.333291 -2.53834 3.82543 -22.1987 -3.69376 2.72653 -2.18605 -3.69376 2.72653 113.378 -21.5801 -55.8943 -1.41522 34.0728 1.91506 -2.23397 0.546708 -24.5191 -5.37983 -0.320008 -0.0162412 -88.3009 -22.2135 73.9189 25.2905 41.5414 -16.3779 -16.4464 -8.32332 -72.0813 -42.9154 12.3378 -37.2226 -8.84177 19.0623 -4.75946 -2.78766 19.2573 13.5221 
14.27 97.7761 -62.2424 -57.4113 -80.481 -62.4893 -171.835 20.1489 98.6869 -12.8824 -36.2717 0.276147 24.4632 0.25995 -1.22808 28.7808 6.1472e-006 7.56055e-007 -174.962 14.0822 99.6654 -4.81849 17.8393 1.08509 38.3431 3.34127 3.82883 28.7808 1.53536e-005 3.18881e-005 -1.70089 7.20422 -87.7833 12.4778 -2.26482 4.12487 0.801943 -2.08125 4.22033 -21.7133 -3.3992 3.25468 -1.70066 -3.39921 3.25467 113.345 -19.3015 -54.8829 -1.00795 36.1577 -0.32033 -3.57483 0.744205 -22.5048 -5.37983 -0.320008 -0.0162412 -86.7057 -20.7615 76.8699 22.3764 45.9741 -14.6995 -17.599 -9.94669 -75.5352 -46.3552 12.6736 -35.3238 -6.74391 21.9576 -3.63918 -3.77691 21.9764 14.1608 
16.5405 98.5851 -59.6924 -74.8572 -66.98 -81.1152 -171.359 17.9601 98.929 -6.2536 -38.1514 -0.400035 19.837 3.17228 2.16979 28.7808 6.1472e-006 7.56055e-007 -175.11 12.2597 99.6451 -6.06358 15.1526 0.902747 36.0281 6.37236 6.91425 28.7808 1.53536e-005 3.18881e-005 -1.49336 6.99662 -87.9377 12.9039 -1.97325 4.41436 1.22665 -1.77725 4.49672 -21.2769 -3.20794 3.61876 -1.26427 -3.20793 3.61877 112.611 -16.6235 -55.3077 -1.08905 38.9844 -1.79134 -5.42095 0.942625 -20.6258 -5.37983 -0.320008 -0.0162412 -85.695 -21.3001 79.2845 22.0105 51.2136 -14.9363 -15.1109 -10.532 -77.4991 -43.2772 12.0728 -36.2509 -4.97006 23.7593 -1.91922 -2.34577 23.7623 12.0711 
18.6984 99.3291 -56.9217 -79.3188 -53.0527 -86.1222 -170.268 16.5275 100.129 -2.97141 -38.7735 -1.07731 15.291 3.54963 2.73153 28.7808 6.1472e-006 7.56055e-007 -175.461 10.4495 99.4586 -7.39852 10.8588 0.630405 34.1011 7.57882 8.39584 28.7808 1.53536e-005 3.18881e-005 -1.23871 6.86002 -88.3699 13.1887 -1.7564 4.40013 1.51123 -1.56125 4.47298 -20.9889 -2.99683 3.67035 -0.976225 -2.99681 3.67034 111.991 -13.0859 -54.9986 0.262699 42.5424 -5.35536 -7.72309 1.19119 -19.7967 -5.37983 -0.320008 -0.0162412 -85.7997 -22.6885 79.4726 19.7588 55.7128 -13.6432 -11.7162 -10.8617 -78.4279 -41.6707 12.5448 -38.828 -2.64845 23.0628 -0.840802 -0.201408 23.0475 7.82227 
